<svg xmlns="http://www.w3.org/2000/svg" viewBox="0 0 1100 760" width="1100" height="760" font-family="'Liberation Serif','Times New Roman',Times,serif">
<defs>
  <marker id="arrow" viewBox="0 0 10 10" refX="9" refY="5" markerWidth="8" markerHeight="8" orient="auto-start-reverse">
    <path d="M0,0 L10,5 L0,10 z" fill="#111"/>
  </marker>
</defs>
<rect width="1100" height="760" fill="#fff"/>
<rect x="20" y="80" width="170" height="60" rx="4" fill="#fff" stroke="#111" stroke-width="1.4"/><text x="105" y="110" font-size="15" font-weight="700" text-anchor="middle" dominant-baseline="middle">Student / Maker</text>
<rect x="20" y="530" width="170" height="60" rx="4" fill="#fff" stroke="#111" stroke-width="1.4"/><text x="105" y="560" font-size="15" font-weight="700" text-anchor="middle" dominant-baseline="middle">Teacher</text>
<rect x="900" y="600" width="170" height="60" rx="4" fill="#fff" stroke="#111" stroke-width="1.4"/><text x="985" y="630" font-size="15" font-weight="700" text-anchor="middle" dominant-baseline="middle">Owner</text>
<rect x="930" y="300" width="160" height="60" rx="4" fill="#fff" stroke="#111" stroke-width="1.4"/><text x="1010" y="330" font-size="15" font-weight="700" text-anchor="middle" dominant-baseline="middle">Cashfree</text>
<circle cx="340" cy="110" r="60" fill="#fff" stroke="#111" stroke-width="1.4"/><line x1="290.8" y1="84.8" x2="389.2" y2="84.8" stroke="#111" stroke-width="1"/><text x="340" y="72.2" font-size="13" font-weight="700" text-anchor="middle" dominant-baseline="middle">1.0</text><text x="340" y="112.05" font-size="14" font-weight="400" text-anchor="middle" dominant-baseline="middle">Build</text>
<text x="340" y="129.55" font-size="14" font-weight="400" text-anchor="middle" dominant-baseline="middle">scene</text>
<circle cx="580" cy="110" r="60" fill="#fff" stroke="#111" stroke-width="1.4"/><line x1="530.8" y1="84.8" x2="629.2" y2="84.8" stroke="#111" stroke-width="1"/><text x="580" y="72.2" font-size="13" font-weight="700" text-anchor="middle" dominant-baseline="middle">2.0</text><text x="580" y="112.05" font-size="14" font-weight="400" text-anchor="middle" dominant-baseline="middle">Export</text>
<text x="580" y="129.55" font-size="14" font-weight="400" text-anchor="middle" dominant-baseline="middle">files</text>
<circle cx="340" cy="330" r="60" fill="#fff" stroke="#111" stroke-width="1.4"/><line x1="290.8" y1="304.8" x2="389.2" y2="304.8" stroke="#111" stroke-width="1"/><text x="340" y="292.2" font-size="13" font-weight="700" text-anchor="middle" dominant-baseline="middle">3.0</text><text x="340" y="332.05" font-size="14" font-weight="400" text-anchor="middle" dominant-baseline="middle">Geometry</text>
<text x="340" y="349.55" font-size="14" font-weight="400" text-anchor="middle" dominant-baseline="middle">jobs</text>
<circle cx="580" cy="330" r="60" fill="#fff" stroke="#111" stroke-width="1.4"/><line x1="530.8" y1="304.8" x2="629.2" y2="304.8" stroke="#111" stroke-width="1"/><text x="580" y="292.2" font-size="13" font-weight="700" text-anchor="middle" dominant-baseline="middle">4.0</text><text x="580" y="332.05" font-size="14" font-weight="400" text-anchor="middle" dominant-baseline="middle">Sign in &amp;</text>
<text x="580" y="349.55" font-size="14" font-weight="400" text-anchor="middle" dominant-baseline="middle">cloud save</text>
<circle cx="820" cy="330" r="60" fill="#fff" stroke="#111" stroke-width="1.4"/><line x1="770.8" y1="304.8" x2="869.2" y2="304.8" stroke="#111" stroke-width="1"/><text x="820" y="292.2" font-size="13" font-weight="700" text-anchor="middle" dominant-baseline="middle">5.0</text><text x="820" y="332.05" font-size="14" font-weight="400" text-anchor="middle" dominant-baseline="middle">Billing</text>
<text x="820" y="349.55" font-size="14" font-weight="400" text-anchor="middle" dominant-baseline="middle">&amp; GST</text>
<circle cx="340" cy="560" r="60" fill="#fff" stroke="#111" stroke-width="1.4"/><line x1="290.8" y1="534.8" x2="389.2" y2="534.8" stroke="#111" stroke-width="1"/><text x="340" y="522.2" font-size="13" font-weight="700" text-anchor="middle" dominant-baseline="middle">6.0</text><text x="340" y="562.05" font-size="14" font-weight="400" text-anchor="middle" dominant-baseline="middle">Campus</text>
<text x="340" y="579.55" font-size="14" font-weight="400" text-anchor="middle" dominant-baseline="middle">class</text>
<circle cx="640" cy="630" r="60" fill="#fff" stroke="#111" stroke-width="1.4"/><line x1="590.8" y1="604.8" x2="689.2" y2="604.8" stroke="#111" stroke-width="1"/><text x="640" y="592.2" font-size="13" font-weight="700" text-anchor="middle" dominant-baseline="middle">7.0</text><text x="640" y="632.05" font-size="14" font-weight="400" text-anchor="middle" dominant-baseline="middle">Owner</text>
<text x="640" y="649.55" font-size="14" font-weight="400" text-anchor="middle" dominant-baseline="middle">dashboard</text>
<line x1="40" y1="300" x2="240" y2="300" stroke="#111" stroke-width="1.4"/>
<line x1="40" y1="330" x2="240" y2="330" stroke="#111" stroke-width="1.4"/>
<line x1="80" y1="300" x2="80" y2="330" stroke="#111" stroke-width="1.4"/>
<line x1="40" y1="300" x2="40" y2="330" stroke="#111" stroke-width="1.4"/>
<text x="60" y="315" font-size="13" font-weight="700" text-anchor="middle" dominant-baseline="middle">D1</text>
<text x="160" y="315" font-size="14" font-weight="400" text-anchor="middle" dominant-baseline="middle">Device projects</text>
<line x1="480" y1="460" x2="680" y2="460" stroke="#111" stroke-width="1.4"/>
<line x1="480" y1="490" x2="680" y2="490" stroke="#111" stroke-width="1.4"/>
<line x1="520" y1="460" x2="520" y2="490" stroke="#111" stroke-width="1.4"/>
<line x1="480" y1="460" x2="480" y2="490" stroke="#111" stroke-width="1.4"/>
<text x="500" y="475" font-size="13" font-weight="700" text-anchor="middle" dominant-baseline="middle">D2</text>
<text x="600" y="475" font-size="14" font-weight="400" text-anchor="middle" dominant-baseline="middle">Users &amp; projects</text>
<line x1="740" y1="460" x2="940" y2="460" stroke="#111" stroke-width="1.4"/>
<line x1="740" y1="490" x2="940" y2="490" stroke="#111" stroke-width="1.4"/>
<line x1="780" y1="460" x2="780" y2="490" stroke="#111" stroke-width="1.4"/>
<line x1="740" y1="460" x2="740" y2="490" stroke="#111" stroke-width="1.4"/>
<text x="760" y="475" font-size="13" font-weight="700" text-anchor="middle" dominant-baseline="middle">D3</text>
<text x="860" y="475" font-size="14" font-weight="400" text-anchor="middle" dominant-baseline="middle">Payments</text>
<line x1="240" y1="690" x2="440" y2="690" stroke="#111" stroke-width="1.4"/>
<line x1="240" y1="720" x2="440" y2="720" stroke="#111" stroke-width="1.4"/>
<line x1="280" y1="690" x2="280" y2="720" stroke="#111" stroke-width="1.4"/>
<line x1="240" y1="690" x2="240" y2="720" stroke="#111" stroke-width="1.4"/>
<text x="260" y="705" font-size="13" font-weight="700" text-anchor="middle" dominant-baseline="middle">D4</text>
<text x="360" y="705" font-size="14" font-weight="400" text-anchor="middle" dominant-baseline="middle">Orgs &amp; members</text>
<line x1="190" y1="110" x2="280" y2="110" stroke="#111" stroke-width="1.3" marker-end="url(#arrow)"/>
<text x="235" y="96" font-size="13" font-weight="400" text-anchor="middle" dominant-baseline="middle" font-style="italic">recipe</text>
<line x1="400" y1="110" x2="520" y2="110" stroke="#111" stroke-width="1.3" marker-end="url(#arrow)"/>
<text x="460" y="96" font-size="13" font-weight="400" text-anchor="middle" dominant-baseline="middle" font-style="italic">scene</text>
<polyline points="580,50 580,28 105,28 105,80" fill="none" stroke="#111" stroke-width="1.3" marker-end="url(#arrow)"/>
<text x="340" y="16" font-size="13" font-weight="400" text-anchor="middle" dominant-baseline="middle" font-style="italic">GLB / STL / OBJ / PNG / PDF files</text>
<line x1="298" y1="153" x2="190" y2="300" stroke="#111" stroke-width="1.3" marker-end="url(#arrow)" marker-start="url(#arrow)"/>
<line x1="340" y1="170" x2="340" y2="270" stroke="#111" stroke-width="1.3" marker-end="url(#arrow)"/>
<text x="362" y="220" font-size="13" font-weight="400" text-anchor="start" dominant-baseline="middle" font-style="italic">mesh</text>
<line x1="580" y1="170" x2="580" y2="270" stroke="#111" stroke-width="1.3" marker-end="url(#arrow)"/>
<text x="592" y="220" font-size="13" font-weight="400" text-anchor="start" dominant-baseline="middle" font-style="italic">export ticket</text>
<line x1="640" y1="330" x2="760" y2="330" stroke="#111" stroke-width="1.3" marker-end="url(#arrow)"/>
<text x="700" y="316" font-size="13" font-weight="400" text-anchor="middle" dominant-baseline="middle" font-style="italic">plan</text>
<line x1="880" y1="330" x2="930" y2="330" stroke="#111" stroke-width="1.3" marker-end="url(#arrow)" marker-start="url(#arrow)"/>
<text x="905" y="282.5" font-size="12" font-weight="400" text-anchor="middle" dominant-baseline="middle" font-style="italic">payment</text>
<text x="905" y="297.5" font-size="12" font-weight="400" text-anchor="middle" dominant-baseline="middle" font-style="italic">events</text>
<line x1="580" y1="390" x2="580" y2="460" stroke="#111" stroke-width="1.3" marker-end="url(#arrow)" marker-start="url(#arrow)"/>
<line x1="820" y1="390" x2="830" y2="460" stroke="#111" stroke-width="1.3" marker-end="url(#arrow)"/>
<line x1="190" y1="560" x2="280" y2="560" stroke="#111" stroke-width="1.3" marker-end="url(#arrow)" marker-start="url(#arrow)"/>
<text x="235" y="542" font-size="13" font-weight="400" text-anchor="middle" dominant-baseline="middle" font-style="italic">join code</text>
<line x1="394" y1="533" x2="480" y2="482" stroke="#111" stroke-width="1.3" marker-end="url(#arrow)" marker-start="url(#arrow)"/>
<text x="410" y="490" font-size="13" font-weight="400" text-anchor="end" dominant-baseline="middle" font-style="italic">shared projects</text>
<line x1="340" y1="620" x2="340" y2="690" stroke="#111" stroke-width="1.3" marker-end="url(#arrow)" marker-start="url(#arrow)"/>
<line x1="615" y1="575" x2="590" y2="490" stroke="#111" stroke-width="1.3" marker-end="url(#arrow)"/>
<line x1="690" y1="600" x2="800" y2="490" stroke="#111" stroke-width="1.3" marker-end="url(#arrow)"/>
<text x="770" y="560" font-size="13" font-weight="400" text-anchor="start" dominant-baseline="middle" font-style="italic">payments</text>
<line x1="582" y1="652" x2="440" y2="700" stroke="#111" stroke-width="1.3" marker-end="url(#arrow)" marker-start="url(#arrow)"/>
<line x1="900" y1="630" x2="700" y2="630" stroke="#111" stroke-width="1.3" marker-end="url(#arrow)" marker-start="url(#arrow)"/>
<text x="800" y="614" font-size="13" font-weight="400" text-anchor="middle" dominant-baseline="middle" font-style="italic">licences, metrics</text>
</svg>